<svg id="Layer_1" data-name="Layer 1" xmlns="http://www.w3.org/2000/svg" xmlns:xlink="http://www.w3.org/1999/xlink" viewBox="0 0 3000 3000"><defs><style>.cls-1{fill:url(#linear-gradient);}.cls-2{fill:url(#linear-gradient-2);}.cls-3{fill:url(#linear-gradient-3);}.cls-4{fill:url(#linear-gradient-4);}.cls-5{fill:url(#linear-gradient-5);}.cls-6{fill:#330067;}.cls-7{fill:url(#linear-gradient-6);}.cls-8{fill:url(#linear-gradient-7);}.cls-9{fill:url(#linear-gradient-8);}.cls-10{fill:url(#linear-gradient-9);}</style><linearGradient id="linear-gradient" x1="523.22" y1="1338.35" x2="523.22" y2="1651.58" gradientUnits="userSpaceOnUse"><stop offset="0" stop-color="#dd12ad"/><stop offset="1" stop-color="#863fc9"/></linearGradient><linearGradient id="linear-gradient-2" x1="708.1" y1="1338.35" x2="708.1" y2="1651.58" xlink:href="#linear-gradient"/><linearGradient id="linear-gradient-3" x1="892.01" y1="1338.35" x2="892.01" y2="1651.58" xlink:href="#linear-gradient"/><linearGradient id="linear-gradient-4" x1="1137.99" y1="1338.35" x2="1137.99" y2="1651.58" xlink:href="#linear-gradient"/><linearGradient id="linear-gradient-5" x1="1431.81" y1="1350.1" x2="1431.81" y2="1652.7" xlink:href="#linear-gradient"/><linearGradient id="linear-gradient-6" x1="854.65" y1="1338.35" x2="854.65" y2="1651.58" xlink:href="#linear-gradient"/><linearGradient id="linear-gradient-7" x1="929.38" y1="1338.35" x2="929.38" y2="1651.58" xlink:href="#linear-gradient"/><linearGradient id="linear-gradient-8" x1="866.13" y1="1338.35" x2="866.13" y2="1651.58" xlink:href="#linear-gradient"/><linearGradient id="linear-gradient-9" x1="917.9" y1="1338.35" x2="917.9" y2="1651.58" xlink:href="#linear-gradient"/></defs><path class="cls-1" d="M519.88,1447.94c-33.14,1.19-60.76,14.21-82.86,39.85V1374.16H407.43v191.37c-.79,32.35,10.65,60.37,34.72,84s52.09,35.12,84.44,33.93c31.17-1.18,58-13,79.71-35.9s32.75-50.11,32.75-81.68c0-32.75-11.84-60.77-35.52-84.44C580.25,1457.81,552.24,1446.76,519.88,1447.94Zm65.11,178c-16.18,17.75-35.51,26.83-58.79,28-24.47,1.18-45.38-7.5-63.13-25.65-17.76-18.54-26.05-40.24-25.26-65.1.4-23.68,9.08-43.8,25.26-60.77s35.9-25.25,58.79-25.25c24.07,0,44.19,8.68,60.76,25.65,17,17,25.65,37.09,26,60.76C609.06,1587.62,601.17,1608.14,585,1625.9Z"/><path class="cls-2" d="M690.74,1485.43v-32h-28v224.9h31.57V1543.82c0-14.6,2.36-26,7.49-34.72,3.16-5.13,9.08-11.44,17.76-18.54s20.12-11,33.93-11.45v-30c-11.83-.4-23.28,2.36-34.72,8.28C706.52,1464.12,697.05,1473.19,690.74,1485.43Z"/><path class="cls-3" d="M895.52,1447.94c-32.75-1.18-60.77,9.87-84,33.54-23.28,23.28-35.11,51.69-35.11,84.44,0,31.57,11,58.79,32.75,81.68s48.14,34.72,79.31,35.9q53.26,1.79,90-40.24v35.11h29.2V1565.53c1.18-31.18-9.47-58.4-31.57-81.29C953.92,1461,927.09,1449.13,895.52,1447.94Zm56.42,180.32c-17.36,18.15-38.27,26.83-63.13,25.65-22.88-1.18-42.61-10.26-58.79-28s-23.67-38.67-23.28-62.35c.39-24.07,8.68-44.19,25.65-61.16s37.09-25.25,61.16-25.25c22.88,0,42.61,8.29,58.79,25.25s24.86,37.09,25.25,60.77C978,1588,969.7,1609.72,951.94,1628.26Z"/><path class="cls-4" d="M1138.19,1448.34c-28.81,0-52.48,9.86-71.42,29.19s-28.41,43.41-28.41,72.61v128.23h30.38V1547c0-18.94,6.71-35.12,20.52-48.93s30.38-20.52,48.93-20.52,34.33,6.71,48.14,20.52,20.91,30,20.91,48.93v131.39h30.38V1550.14c0-29.2-9.47-53.27-28.41-72.61S1166.6,1448.34,1138.19,1448.34Z"/><path class="cls-5" d="M1504.75,1402.27l85.35-32v-55l-114.94,43.13V1489c-22.1-25.26-49.72-38.67-82.86-39.85-32.36-1.19-60.37,10.25-83.65,33.93-23.28,23.28-35.12,51.69-35.12,84.44,0,31.56,10.65,58.79,32.35,81.68s48.54,34.72,79.71,35.51c32.35,1.18,60.37-10.26,84.44-33.54,24.07-23.68,35.51-51.69,34.72-84.05Zm-55.64,227.18c-17.36,18.54-38.27,26.83-63.13,25.64-23.28-.79-42.61-9.86-58.79-27.62s-24.07-38.66-23.67-62.34c.39-24.07,8.68-44.19,25.64-61.16s37.49-25.65,61.16-25.25c23.28,0,42.62,8.28,58.79,25.25s24.86,37.09,25.26,60.77C1475.16,1589.59,1466.87,1610.9,1449.11,1629.45Z"/><path class="cls-6" d="M1776.22,1448.73c-32.75-2.76-58.79,11.44-78.12,41.83-19.34-30.39-45.38-44.59-78.13-41.83q-36.69,3-59.19,27.23c-16.17,17-24.07,39.85-24.07,67.86v134.55h31.18v-138.1c0-17.75,4.73-32.35,14.6-44.59s22.88-18.54,39.06-18.54c16.57,0,30.77,5.52,42.61,16.18,12.23,10.65,18.15,24.07,18.15,40.24v144.81h31.57V1533.56q0-24.25,17.75-40.24a63.35,63.35,0,0,1,43-16.18c16.18,0,29.6,6.31,39.46,18.54s15,27.23,15,44.59v138.1h31.18V1543.82c0-28-8.29-50.9-24.47-67.86C1820.41,1459.78,1800.69,1450.7,1776.22,1448.73Z"/><path class="cls-6" d="M2061.11,1585.25c0,18.94-7.1,35.12-20.91,48.93-13.81,13.42-29.59,20.12-48.14,20.12s-34.72-6.7-48.53-20.12c-13.81-13.81-20.52-30-20.52-48.93V1453.47h-30.38V1581.7c0,29.2,9.47,53.67,28,73,18.94,19.33,42.62,29.2,71.42,29.2s52.48-9.87,71-29.2c18.94-19.33,28.41-43.8,28.41-73V1453.47h-30.38Z"/><path class="cls-6" d="M2219.34,1551.32l-26-8.68c-20.13-6.71-30-18.15-28.81-34.33.4-17.36,14.6-30.38,31.57-30.78,17.36,0,33.14,10.66,33.14,26.44v5.13h31.57l-.4-6.71c-1.18-15.78-8.28-28.8-21.7-39.45-13-10.66-27.22-15.79-42.61-15-17.76.79-32.75,7.5-45.38,19.73-12.23,12.23-18.15,27.23-17.36,44.59,1.18,28.8,15.78,47.74,43.4,56.42l26.44,8.29c22.1,7.1,33.14,20.12,32.75,39.46-.4,11-3.55,20.12-10.26,26.83-7.5,7.49-17.36,11-30,11.44-9.47.39-18.54-3.55-26.83-11.84s-12.63-16.18-12.63-23.67v-7.5H2125q0,29,18.94,49.72c13,13.81,28.81,21.7,47.75,22.88q30.77,1.79,54.45-20.12c15.78-15,22.88-32.75,21.31-52.87C2265.5,1581.7,2249.33,1561.58,2219.34,1551.32Z"/><rect class="cls-6" x="2296.68" y="1453.47" width="29.59" height="224.91"/><rect class="cls-6" x="2296.68" y="1374.16" width="29.59" height="52.48"/><path class="cls-6" d="M2558.67,1612.08c-17.36,27.63-43.4,41.83-78.52,42.22-24.46.4-45.77-8.28-63.52-25.64-17.76-17.76-26.83-38.67-26.83-63.13s9.47-45.78,28.8-63.53c18.55-17.36,39.06-25.65,62.34-25.25,34.73.78,60.37,15.78,77.34,44.58h33.93l-4.34-9.86c-8.28-18.55-22.49-33.54-41.82-45.77-20.52-12.63-42.62-18.94-66.29-18.55-33.14.4-61.55,12.63-85.62,35.91-23.68,23.28-35.12,50.9-34.73,83.65.4,32.35,12.24,60,35.91,82.47s51.69,33.93,84.44,34.32c49.32.4,86-20.91,109.69-64.71l3.16-6.71Z"/><path class="cls-7" d="M826.53,1565.72h-9.25A74.82,74.82,0,0,0,892,1640.45v-9.26A65.55,65.55,0,0,1,826.53,1565.72Z"/><path class="cls-8" d="M892,1491v9.26a65.55,65.55,0,0,1,65.48,65.48h9.26A74.83,74.83,0,0,0,892,1491Z"/><path class="cls-9" d="M849.5,1565.72h-9.26A51.83,51.83,0,0,0,892,1617.48v-9.25A42.56,42.56,0,0,1,849.5,1565.72Z"/><path class="cls-10" d="M892,1514v9.25a42.57,42.57,0,0,1,42.52,42.52h9.25A51.82,51.82,0,0,0,892,1514Z"/><circle class="cls-3" cx="892.01" cy="1565.72" r="25.81"/></svg>